<?xml version="1.0" encoding="UTF-8"?>
<svg width="700pt" height="700pt" version="1.1" viewBox="0 0 700 700" xmlns="http://www.w3.org/2000/svg" xmlns:xlink="http://www.w3.org/1999/xlink">
 <g>
  <path d="m529.31 80.762h-77.938c-10.203-38.195-45.738-59.113-101.38-59.113s-91.172 20.918-101.38 59.113h-77.938c-6.1836 0-11.199 5.0195-11.199 11.199 0 6.1836 5.0195 11.199 11.199 11.199h17.656l11.047 392.78c0 23.387 19.023 42.41 42.41 42.41h216.43c23.367 0 42.375-19.023 42.371-42.094l11.055-393.09h17.641c6.1836 0 11.199-5.0195 11.199-11.199 0-6.1797-5.0039-11.199-11.188-11.199zm-179.31-36.711c29.844 0 65.699 6.7812 77.766 36.719h-155.53c12.066-29.938 47.922-36.719 77.766-36.719zm128.22 451.89c0 11.031-8.9648 20.008-19.977 20.008h-216.43c-11.039 0-20.008-8.9766-20.016-20.324l-11.039-392.46h75.996l5.5156 362.95c0.09375 6.125 5.0898 11.031 11.195 11.031h0.17187c6.1836-0.09375 11.121-5.1875 11.031-11.367l-5.5117-362.61h81.715l-5.5117 362.61c-0.09375 6.1836 4.8438 11.273 11.031 11.367h0.17188c6.1055 0 11.098-4.8984 11.195-11.031l5.5273-362.94h75.977z"/>
 </g>
</svg>
