<?xml version="1.0" encoding="UTF-8"?>
<svg width="700pt" height="700pt" version="1.1" viewBox="0 0 700 700" xmlns="http://www.w3.org/2000/svg" xmlns:xlink="http://www.w3.org/1999/xlink">
 <g>
  <path d="m349.95 151.2c-139.04 0-208.05 60.711-248.97 119.18l-0.003906-0.003906c-1.9688 2.8242-3.0273 6.1836-3.0273 9.625 0 3.4453 1.0586 6.8047 3.0273 9.625 40.914 58.461 109.93 119.18 248.97 119.18s208.05-60.711 248.97-119.18h0.003906c1.9727-2.8203 3.0312-6.1797 3.0312-9.625 0-3.4414-1.0586-6.8008-3.0312-9.625-40.914-58.465-109.93-119.18-248.97-119.18zm0 39.199c49.672 0 89.582 39.918 89.582 89.602s-39.906 89.602-89.582 89.602c-49.672 0-89.582-39.918-89.582-89.602s39.906-89.602 89.582-89.602zm-89.055 4.7266c-21.09 22.121-34.117 52.016-34.117 84.875 0 32.949 13.102 62.91 34.293 85.051-62.375-16.145-97.934-49.488-124.57-85.051 26.613-35.535 62.133-68.715 124.4-84.875zm178.11 0c62.266 16.16 97.781 49.34 124.4 84.875-26.641 35.562-62.199 68.906-124.57 85.051 21.188-22.137 34.293-52.102 34.293-85.051 0-32.863-13.027-62.754-34.117-84.875zm-89.055 23.273c-33.812 0-61.586 27.777-61.586 61.602 0 33.82 27.773 61.602 61.586 61.602s61.586-27.777 61.586-61.602c0-33.82-27.773-61.602-61.586-61.602zm0 33.602c15.66 0 27.992 12.336 27.992 28 0 15.664-12.336 28-27.992 28-15.66 0-27.992-12.336-27.992-28 0-15.664 12.336-28 27.992-28z"/>
 </g>
</svg>
